<svg width="1844" height="540" viewBox="0 0 1844 540" fill="none" xmlns="http://www.w3.org/2000/svg">
<g clip-path="url(#clip0_26_3081)">
<path d="M180.498 395.818C165.271 395.818 152.254 393.362 141.447 388.45C130.64 383.292 122.413 375.433 116.764 364.872C111.36 354.311 108.659 341.048 108.659 325.084V247.718H79.9228C77.2211 247.718 75.0106 246.858 73.2914 245.139C71.5722 243.42 70.7125 241.209 70.7125 238.507V213.456C70.7125 210.754 71.5722 208.544 73.2914 206.824C75.0106 205.105 77.2211 204.245 79.9228 204.245H108.659V143.458C108.659 140.756 109.518 138.546 111.238 136.827C113.202 135.107 115.413 134.248 117.869 134.248H153.973C156.675 134.248 158.885 135.107 160.604 136.827C162.324 138.546 163.183 140.756 163.183 143.458V204.245H209.234C211.69 204.245 213.778 205.105 215.497 206.824C217.217 208.544 218.076 210.754 218.076 213.456V238.507C218.076 241.209 217.217 243.42 215.497 245.139C213.778 246.858 211.69 247.718 209.234 247.718H163.183V320.663C163.183 329.996 164.78 337.364 167.973 342.767C171.411 347.925 177.306 350.504 185.656 350.504H212.55C215.006 350.504 217.094 351.363 218.813 353.083C220.532 354.802 221.392 356.89 221.392 359.346V386.608C221.392 389.31 220.532 391.52 218.813 393.239C217.094 394.958 215.006 395.818 212.55 395.818H180.498ZM262.374 395.818C259.918 395.818 257.831 394.958 256.112 393.239C254.392 391.52 253.533 389.31 253.533 386.608V213.456C253.533 211 254.392 208.912 256.112 207.193C257.831 205.228 259.918 204.245 262.374 204.245H298.479C300.935 204.245 303.022 205.228 304.742 207.193C306.706 208.912 307.689 211 307.689 213.456V228.192C313.829 220.578 321.32 214.684 330.162 210.508C339.249 206.333 349.687 204.245 361.476 204.245H377.318C379.774 204.245 381.862 205.105 383.581 206.824C385.3 208.544 386.16 210.754 386.16 213.456V245.139C386.16 247.84 385.3 250.051 383.581 251.77C381.862 253.489 379.774 254.349 377.318 254.349H344.898C334.091 254.349 325.618 257.419 319.478 263.559C313.338 269.454 310.268 277.927 310.268 288.979V386.608C310.268 389.31 309.408 391.52 307.689 393.239C305.97 394.958 303.759 395.818 301.057 395.818H262.374ZM466.761 399.502C453.744 399.502 442.077 397.046 431.762 392.134C421.447 386.976 413.219 380.099 407.079 371.503C400.938 362.907 397.868 353.328 397.868 342.767C397.868 325.329 404.868 311.575 418.868 301.505C433.113 291.436 451.779 284.559 474.866 280.874L523.127 273.875V267.243C523.127 257.665 520.917 250.297 516.496 245.139C512.075 239.981 504.339 237.402 493.286 237.402C485.181 237.402 478.673 238.999 473.761 242.192C468.849 245.384 465.042 249.56 462.34 254.717C460.375 257.91 457.551 259.507 453.867 259.507H418.868C416.166 259.507 414.078 258.77 412.605 257.296C411.131 255.577 410.517 253.612 410.763 251.402C410.763 247.226 412.359 242.314 415.552 236.665C418.745 231.016 423.657 225.49 430.288 220.087C436.92 214.438 445.393 209.772 455.709 206.087C466.024 202.403 478.673 200.561 493.655 200.561C509.128 200.561 522.391 202.403 533.443 206.087C544.495 209.772 553.337 214.929 559.968 221.561C566.6 228.192 571.512 235.929 574.705 244.77C577.898 253.367 579.494 262.7 579.494 272.769V386.608C579.494 389.31 578.634 391.52 576.915 393.239C575.196 394.958 572.985 395.818 570.284 395.818H534.18C531.724 395.818 529.636 394.958 527.917 393.239C526.198 391.52 525.338 389.31 525.338 386.608V372.977C522.145 377.643 517.847 382.064 512.444 386.239C507.04 390.169 500.532 393.362 492.918 395.818C485.55 398.274 476.831 399.502 466.761 399.502ZM481.497 361.188C489.602 361.188 496.848 359.468 503.233 356.03C509.619 352.591 514.654 347.311 518.338 340.188C522.022 333.066 523.864 324.101 523.864 313.294V307.032L489.602 312.558C476.339 314.768 466.638 318.084 460.498 322.505C454.358 326.926 451.288 332.329 451.288 338.715C451.288 343.381 452.639 347.434 455.34 350.872C458.287 354.311 462.094 356.89 466.761 358.609C471.427 360.328 476.339 361.188 481.497 361.188ZM632.942 395.818C630.486 395.818 628.398 394.958 626.679 393.239C624.96 391.52 624.1 389.31 624.1 386.608V213.456C624.1 210.754 624.96 208.544 626.679 206.824C628.398 205.105 630.486 204.245 632.942 204.245H669.046C671.748 204.245 673.958 205.105 675.678 206.824C677.397 208.544 678.256 210.754 678.256 213.456V227.824C684.642 219.964 692.87 213.456 702.94 208.298C713.01 203.14 725.29 200.561 739.781 200.561C754.272 200.561 766.92 203.877 777.727 210.508C788.779 216.894 797.375 226.35 803.516 238.876C809.901 251.156 813.094 266.138 813.094 283.822V386.608C813.094 389.31 812.112 391.52 810.147 393.239C808.428 394.958 806.34 395.818 803.884 395.818H764.833C762.131 395.818 759.92 394.958 758.201 393.239C756.482 391.52 755.622 389.31 755.622 386.608V286.032C755.622 273.015 752.429 262.945 746.044 255.823C739.904 248.454 730.816 244.77 718.781 244.77C707.238 244.77 698.028 248.454 691.151 255.823C684.274 262.945 680.835 273.015 680.835 286.032V386.608C680.835 389.31 679.976 391.52 678.256 393.239C676.537 394.958 674.45 395.818 671.994 395.818H632.942ZM932.758 399.502C917.53 399.502 904.391 397.783 893.338 394.344C882.532 390.66 873.69 386.239 866.813 381.082C860.181 375.924 855.147 370.766 851.708 365.609C848.515 360.205 846.796 355.662 846.55 351.977C846.305 349.276 847.164 347.065 849.129 345.346C851.094 343.627 853.059 342.767 855.024 342.767H890.759C891.496 342.767 892.233 342.89 892.97 343.136C893.707 343.381 894.443 343.995 895.18 344.978C898.373 347.188 901.689 349.767 905.127 352.714C908.566 355.416 912.496 357.749 916.916 359.714C921.583 361.679 927.355 362.661 934.232 362.661C942.337 362.661 949.214 361.065 954.863 357.872C960.512 354.433 963.336 349.644 963.336 343.504C963.336 339.083 961.985 335.399 959.283 332.452C956.827 329.504 952.038 326.803 944.916 324.347C937.793 321.891 927.232 319.189 913.232 316.242C899.97 313.294 888.672 309.365 879.339 304.453C870.006 299.541 863.006 293.4 858.339 286.032C853.673 278.418 851.34 269.331 851.34 258.77C851.34 249.191 854.287 239.981 860.181 231.139C866.322 222.297 875.286 215.052 887.075 209.403C898.864 203.509 913.601 200.561 931.284 200.561C944.793 200.561 956.582 202.281 966.652 205.719C976.967 208.912 985.563 213.087 992.44 218.245C999.317 223.157 1004.48 228.315 1007.91 233.718C1011.6 238.876 1013.56 243.42 1013.81 247.349C1014.05 249.805 1013.32 251.893 1011.6 253.612C1009.88 255.331 1007.91 256.191 1005.7 256.191H972.915C971.687 256.191 970.581 256.068 969.599 255.823C968.617 255.331 967.757 254.717 967.02 253.981C964.073 252.016 961.003 249.805 957.81 247.349C954.863 244.648 951.301 242.314 947.126 240.349C942.951 238.385 937.547 237.402 930.916 237.402C922.811 237.402 916.548 239.244 912.127 242.928C907.952 246.367 905.864 250.788 905.864 256.191C905.864 259.63 906.969 262.822 909.18 265.77C911.39 268.717 915.934 271.419 922.811 273.875C929.688 276.331 940.126 278.91 954.126 281.611C970.827 284.559 984.09 288.979 993.914 294.874C1003.74 300.769 1010.74 307.646 1014.91 315.505C1019.33 323.119 1021.54 331.347 1021.54 340.188C1021.54 351.732 1018.11 362.047 1011.23 371.135C1004.35 379.977 994.282 386.976 981.02 392.134C968.003 397.046 951.915 399.502 932.758 399.502ZM1225.9 399.502C1205.51 399.502 1188.44 396.187 1174.69 389.555C1160.94 382.678 1150.38 372.977 1143.01 360.451C1135.88 347.925 1131.95 333.311 1131.22 316.61C1130.97 311.698 1130.85 306.172 1130.85 300.032C1130.85 293.646 1130.97 288.12 1131.22 283.453C1131.95 266.507 1136.13 251.893 1143.74 239.613C1151.36 227.087 1162.04 217.508 1175.8 210.877C1189.55 204 1206.25 200.561 1225.9 200.561C1245.3 200.561 1261.88 204 1275.63 210.877C1289.39 217.508 1300.07 227.087 1307.69 239.613C1315.3 251.893 1319.48 266.507 1320.21 283.453C1320.7 288.12 1320.95 293.646 1320.95 300.032C1320.95 306.172 1320.7 311.698 1320.21 316.61C1319.48 333.311 1315.42 347.925 1308.05 360.451C1300.93 372.977 1290.49 382.678 1276.74 389.555C1262.99 396.187 1246.04 399.502 1225.9 399.502ZM1225.9 358.977C1237.93 358.977 1247.02 355.293 1253.16 347.925C1259.3 340.311 1262.62 329.259 1263.11 314.768C1263.35 311.084 1263.48 306.172 1263.48 300.032C1263.48 293.892 1263.35 288.979 1263.11 285.295C1262.62 271.05 1259.3 260.121 1253.16 252.507C1247.02 244.893 1237.93 241.086 1225.9 241.086C1213.86 241.086 1204.65 244.893 1198.27 252.507C1192.13 260.121 1188.81 271.05 1188.32 285.295C1188.08 288.979 1187.95 293.892 1187.95 300.032C1187.95 306.172 1188.08 311.084 1188.32 314.768C1188.81 329.259 1192.13 340.311 1198.27 347.925C1204.65 355.293 1213.86 358.977 1225.9 358.977ZM1415.85 399.502C1402.83 399.502 1391.16 397.046 1380.85 392.134C1370.53 386.976 1362.3 380.099 1356.16 371.503C1350.02 362.907 1346.95 353.328 1346.95 342.767C1346.95 325.329 1353.95 311.575 1367.95 301.505C1382.2 291.436 1400.86 284.559 1423.95 280.874L1472.21 273.875V267.243C1472.21 257.665 1470 250.297 1465.58 245.139C1461.16 239.981 1453.42 237.402 1442.37 237.402C1434.27 237.402 1427.76 238.999 1422.85 242.192C1417.93 245.384 1414.13 249.56 1411.43 254.717C1409.46 257.91 1406.64 259.507 1402.95 259.507H1367.95C1365.25 259.507 1363.16 258.77 1361.69 257.296C1360.22 255.577 1359.6 253.612 1359.85 251.402C1359.85 247.226 1361.44 242.314 1364.64 236.665C1367.83 231.016 1372.74 225.49 1379.37 220.087C1386 214.438 1394.48 209.772 1404.79 206.087C1415.11 202.403 1427.76 200.561 1442.74 200.561C1458.21 200.561 1471.48 202.403 1482.53 206.087C1493.58 209.772 1502.42 214.929 1509.05 221.561C1515.68 228.192 1520.6 235.929 1523.79 244.77C1526.98 253.367 1528.58 262.7 1528.58 272.769V386.608C1528.58 389.31 1527.72 391.52 1526 393.239C1524.28 394.958 1522.07 395.818 1519.37 395.818H1483.26C1480.81 395.818 1478.72 394.958 1477 393.239C1475.28 391.52 1474.42 389.31 1474.42 386.608V372.977C1471.23 377.643 1466.93 382.064 1461.53 386.239C1456.13 390.169 1449.62 393.362 1442 395.818C1434.63 398.274 1425.92 399.502 1415.85 399.502ZM1430.58 361.188C1438.69 361.188 1445.93 359.468 1452.32 356.03C1458.7 352.591 1463.74 347.311 1467.42 340.188C1471.11 333.066 1472.95 324.101 1472.95 313.294V307.032L1438.69 312.558C1425.42 314.768 1415.72 318.084 1409.58 322.505C1403.44 326.926 1400.37 332.329 1400.37 338.715C1400.37 343.381 1401.72 347.434 1404.43 350.872C1407.37 354.311 1411.18 356.89 1415.85 358.609C1420.51 360.328 1425.42 361.188 1430.58 361.188ZM1644.29 399.502C1632.01 399.502 1621.08 397.537 1611.5 393.608C1601.92 389.432 1593.82 383.538 1587.18 375.924C1580.55 368.065 1575.52 358.854 1572.08 348.293C1568.64 337.487 1566.55 325.575 1565.82 312.558C1565.57 307.891 1565.45 303.716 1565.45 300.032C1565.45 296.102 1565.57 291.927 1565.82 287.506C1566.31 274.734 1568.27 263.068 1571.71 252.507C1575.4 241.946 1580.43 232.859 1586.82 225.245C1593.45 217.385 1601.55 211.368 1611.13 207.193C1620.96 202.772 1632.01 200.561 1644.29 200.561C1657.06 200.561 1667.99 202.772 1677.08 207.193C1686.16 211.368 1693.65 216.894 1699.55 223.771V143.458C1699.55 140.756 1700.41 138.546 1702.13 136.827C1703.85 135.107 1706.06 134.248 1708.76 134.248H1746.71C1749.16 134.248 1751.25 135.107 1752.97 136.827C1754.69 138.546 1755.55 140.756 1755.55 143.458V386.608C1755.55 389.31 1754.69 391.52 1752.97 393.239C1751.25 394.958 1749.16 395.818 1746.71 395.818H1711.34C1708.88 395.818 1706.79 394.958 1705.08 393.239C1703.36 391.52 1702.5 389.31 1702.5 386.608V374.082C1696.36 381.45 1688.62 387.59 1679.29 392.502C1669.95 397.169 1658.29 399.502 1644.29 399.502ZM1661.23 355.293C1670.32 355.293 1677.57 353.205 1682.97 349.03C1688.62 344.855 1692.67 339.574 1695.13 333.189C1697.83 326.803 1699.3 319.926 1699.55 312.558C1700.04 307.891 1700.29 303.225 1700.29 298.558C1700.29 293.892 1700.04 289.348 1699.55 284.927C1699.3 278.05 1697.83 271.664 1695.13 265.77C1692.43 259.63 1688.25 254.595 1682.6 250.665C1677.2 246.735 1670.08 244.77 1661.23 244.77C1651.9 244.77 1644.53 246.858 1639.13 251.033C1633.73 254.963 1629.8 260.244 1627.34 266.875C1625.13 273.506 1623.78 280.752 1623.29 288.611C1622.55 296.225 1622.55 303.839 1623.29 311.452C1623.78 319.312 1625.13 326.557 1627.34 333.189C1629.8 339.82 1633.73 345.223 1639.13 349.399C1644.53 353.328 1651.9 355.293 1661.23 355.293Z" fill="#F97216"/>
<path d="M1162.2 452.844L1139.25 475.795L1059.45 396L1082.4 373.048L1162.2 452.844Z" fill="black"/>
<path d="M1088.91 396H1059.45V178.711H1088.91V396Z" fill="black"/>
<path d="M1720.2 443.877C1730.53 444.095 1738.75 445.07 1745.36 449.192C1752 453.326 1756.15 460.07 1760.12 469.638C1760.7 471.028 1760.49 472.589 1759.55 473.818C1758.61 475.048 1757.05 475.794 1755.37 475.794H1720.09C1720.07 475.794 1720.06 475.794 1720.05 475.793H1139.25V443.877H1720.2Z" fill="black"/>
<path d="M1708.24 443.876C1720.11 443.876 1729.73 453.77 1729.73 465.973C1729.73 478.177 1720.11 488.07 1708.24 488.07C1696.38 488.07 1686.76 478.177 1686.76 465.973C1686.76 453.77 1696.38 443.877 1708.24 443.876Z" fill="black"/>
<path d="M1080.32 107.511C1094.82 107.511 1110.54 108.471 1115.98 110.71C1121.41 112.949 1120.81 113.909 1120.81 113.589" stroke="black" stroke-width="4.22582" stroke-linecap="round"/>
<path d="M1074.13 188.545C1072.34 188.545 1070.62 187.782 1069.42 186.447L993.357 101.93C991.683 100.07 991.26 97.3984 992.278 95.1118C993.296 92.8253 995.565 91.3513 998.068 91.3511H1150.2C1152.7 91.3511 1154.97 92.8251 1155.99 95.1118C1157.01 97.3983 1156.58 100.07 1154.91 101.93L1078.84 186.447L1078.61 186.691C1077.43 187.875 1075.82 188.545 1074.13 188.545Z" stroke="black" stroke-width="12.6774" stroke-linejoin="round"/>
<path d="M1068.04 97.6899H1080.32V178.712H1068.04V97.6899Z" fill="black"/>
<circle cx="1085.23" cy="444.183" r="27.0075" stroke="black" stroke-width="34.3731"/>
<path d="M1162.3 453.08L1139.34 476.045L1059.49 396.2L1082.46 373.234L1162.3 453.08Z" fill="white"/>
<path d="M1088.97 396.199H1059.49V178.774H1088.97V396.199Z" fill="white"/>
<path d="M1720.54 444.108C1720.58 444.108 1720.62 444.107 1720.66 444.108C1731 444.325 1739.22 445.301 1745.84 449.425C1752.48 453.562 1756.63 460.311 1760.61 469.885C1761.18 471.276 1760.97 472.838 1760.03 474.068C1759.09 475.299 1757.53 476.044 1755.85 476.044H1720.54C1720.53 476.044 1720.52 476.044 1720.5 476.043H1139.34V444.107H1720.54V444.108Z" fill="white"/>
<path d="M1708.69 444.107C1720.57 444.107 1730.19 454.006 1730.19 466.218C1730.19 478.43 1720.57 488.329 1708.69 488.329C1696.82 488.329 1687.2 478.429 1687.2 466.218C1687.2 454.006 1696.82 444.107 1708.69 444.107Z" fill="white"/>
<path d="M1080.37 107.528C1094.89 107.528 1110.61 108.488 1116.05 110.729C1121.49 112.97 1120.89 113.93 1120.89 113.61" stroke="white" stroke-width="4.2285" stroke-linecap="round"/>
<path d="M1074.18 188.614C1072.38 188.614 1070.67 187.85 1069.47 186.514L993.356 101.944C991.68 100.082 991.258 97.4087 992.277 95.1206C993.296 92.8325 995.566 91.3579 998.07 91.3579H1150.3C1152.8 91.3579 1155.07 92.8325 1156.09 95.1206C1157.11 97.4086 1156.69 100.082 1155.01 101.944L1078.9 186.514L1078.67 186.758C1077.48 187.943 1075.87 188.614 1074.18 188.614Z" stroke="white" stroke-width="12.6855" stroke-linejoin="round"/>
<path d="M1068.09 97.7009H1080.37V178.775H1068.09V97.7009Z" fill="white"/>
<circle cx="1085.29" cy="444.281" r="27.0246" stroke="white" stroke-width="34.3949"/>
</g>
<defs>
<clipPath id="clip0_26_3081">
<rect width="1843.85" height="540" fill="white"/>
</clipPath>
</defs>
</svg>

